<mxfile host="app.diagrams.net" agent="Mozilla/5.0 (Windows NT 10.0; Win64; x64) AppleWebKit/537.36 (KHTML, like Gecko) Chrome/131.0.0.0 Safari/537.36" version="26.0.5">
  <diagram name="第 1 页" id="yg1hlzOl9PT2WTQdHVyk">
    <mxGraphModel dx="1728" dy="915" grid="1" gridSize="10" guides="0" tooltips="1" connect="1" arrows="1" fold="1" page="1" pageScale="1" pageWidth="1169" pageHeight="827" math="0" shadow="0">
      <root>
        <object label="" id="0">
          <mxCell />
        </object>
        <mxCell id="1" style="" parent="0" />
        <mxCell id="Mi7K5WG5HpJbJ7n9Mypf-6" style="edgeStyle=orthogonalEdgeStyle;rounded=0;orthogonalLoop=1;jettySize=auto;html=1;exitX=1;exitY=0.5;exitDx=0;exitDy=0;entryX=0;entryY=0.5;entryDx=0;entryDy=0;" parent="1" source="Mi7K5WG5HpJbJ7n9Mypf-1" target="Mi7K5WG5HpJbJ7n9Mypf-3" edge="1">
          <mxGeometry relative="1" as="geometry" />
        </mxCell>
        <mxCell id="Mi7K5WG5HpJbJ7n9Mypf-1" value="开始节点" style="rounded=1;whiteSpace=wrap;html=1;" parent="1" vertex="1">
          <mxGeometry x="79" y="405" width="120" height="60" as="geometry" />
        </mxCell>
        <mxCell id="Mi7K5WG5HpJbJ7n9Mypf-4" style="edgeStyle=orthogonalEdgeStyle;rounded=0;orthogonalLoop=1;jettySize=auto;html=1;exitX=0.5;exitY=0.5;exitDx=0;exitDy=0;exitPerimeter=0;entryX=0;entryY=0.5;entryDx=0;entryDy=0;" parent="1" source="Mi7K5WG5HpJbJ7n9Mypf-2" target="Mi7K5WG5HpJbJ7n9Mypf-1" edge="1">
          <mxGeometry relative="1" as="geometry" />
        </mxCell>
        <mxCell id="Mi7K5WG5HpJbJ7n9Mypf-2" value="Actor" style="shape=umlActor;verticalLabelPosition=bottom;verticalAlign=top;html=1;outlineConnect=0;" parent="1" vertex="1">
          <mxGeometry x="32" y="405" width="30" height="60" as="geometry" />
        </mxCell>
        <mxCell id="Mi7K5WG5HpJbJ7n9Mypf-8" style="edgeStyle=orthogonalEdgeStyle;rounded=0;orthogonalLoop=1;jettySize=auto;html=1;exitX=0.5;exitY=0;exitDx=0;exitDy=0;entryX=0;entryY=0.5;entryDx=0;entryDy=0;" parent="1" source="Mi7K5WG5HpJbJ7n9Mypf-3" target="Mi7K5WG5HpJbJ7n9Mypf-7" edge="1">
          <mxGeometry relative="1" as="geometry" />
        </mxCell>
        <mxCell id="Mi7K5WG5HpJbJ7n9Mypf-18" value="使用中" style="edgeLabel;html=1;align=center;verticalAlign=middle;resizable=0;points=[];" parent="Mi7K5WG5HpJbJ7n9Mypf-8" vertex="1" connectable="0">
          <mxGeometry x="-0.7501" relative="1" as="geometry">
            <mxPoint as="offset" />
          </mxGeometry>
        </mxCell>
        <mxCell id="Mi7K5WG5HpJbJ7n9Mypf-10" style="edgeStyle=orthogonalEdgeStyle;rounded=0;orthogonalLoop=1;jettySize=auto;html=1;exitX=1;exitY=0.5;exitDx=0;exitDy=0;" parent="1" source="Mi7K5WG5HpJbJ7n9Mypf-3" target="Mi7K5WG5HpJbJ7n9Mypf-9" edge="1">
          <mxGeometry relative="1" as="geometry">
            <mxPoint x="336" y="523" as="sourcePoint" />
          </mxGeometry>
        </mxCell>
        <mxCell id="Mi7K5WG5HpJbJ7n9Mypf-19" value="空闲中" style="edgeLabel;html=1;align=center;verticalAlign=middle;resizable=0;points=[];" parent="Mi7K5WG5HpJbJ7n9Mypf-10" vertex="1" connectable="0">
          <mxGeometry x="-0.5406" relative="1" as="geometry">
            <mxPoint x="-5" as="offset" />
          </mxGeometry>
        </mxCell>
        <mxCell id="Mi7K5WG5HpJbJ7n9Mypf-12" value="" style="edgeStyle=orthogonalEdgeStyle;rounded=0;orthogonalLoop=1;jettySize=auto;html=1;entryX=0;entryY=0.5;entryDx=0;entryDy=0;exitX=0.5;exitY=1;exitDx=0;exitDy=0;" parent="1" source="Mi7K5WG5HpJbJ7n9Mypf-3" target="Mi7K5WG5HpJbJ7n9Mypf-61" edge="1">
          <mxGeometry relative="1" as="geometry">
            <mxPoint x="341" y="603" as="targetPoint" />
          </mxGeometry>
        </mxCell>
        <mxCell id="Mi7K5WG5HpJbJ7n9Mypf-14" value="无法使用" style="edgeLabel;html=1;align=center;verticalAlign=middle;resizable=0;points=[];" parent="Mi7K5WG5HpJbJ7n9Mypf-12" vertex="1" connectable="0">
          <mxGeometry x="-0.7061" y="-1" relative="1" as="geometry">
            <mxPoint y="-42" as="offset" />
          </mxGeometry>
        </mxCell>
        <mxCell id="Mi7K5WG5HpJbJ7n9Mypf-3" value="分支节点1" style="rhombus;whiteSpace=wrap;html=1;" parent="1" vertex="1">
          <mxGeometry x="216" y="407" width="120" height="56" as="geometry" />
        </mxCell>
        <mxCell id="Mi7K5WG5HpJbJ7n9Mypf-34" style="edgeStyle=orthogonalEdgeStyle;rounded=0;orthogonalLoop=1;jettySize=auto;html=1;exitX=0.5;exitY=1;exitDx=0;exitDy=0;entryX=0.5;entryY=0;entryDx=0;entryDy=0;" parent="1" source="Mi7K5WG5HpJbJ7n9Mypf-7" target="Mi7K5WG5HpJbJ7n9Mypf-69" edge="1">
          <mxGeometry relative="1" as="geometry">
            <mxPoint x="370" y="369" as="targetPoint" />
          </mxGeometry>
        </mxCell>
        <mxCell id="Mi7K5WG5HpJbJ7n9Mypf-36" value="普通/游客" style="edgeLabel;html=1;align=center;verticalAlign=middle;resizable=0;points=[];" parent="Mi7K5WG5HpJbJ7n9Mypf-34" vertex="1" connectable="0">
          <mxGeometry x="-0.7717" relative="1" as="geometry">
            <mxPoint y="8" as="offset" />
          </mxGeometry>
        </mxCell>
        <mxCell id="Mi7K5WG5HpJbJ7n9Mypf-7" value="分支节点" style="rhombus;whiteSpace=wrap;html=1;" parent="1" vertex="1">
          <mxGeometry x="341" y="219" width="120" height="56" as="geometry" />
        </mxCell>
        <mxCell id="Mi7K5WG5HpJbJ7n9Mypf-23" style="edgeStyle=orthogonalEdgeStyle;rounded=0;orthogonalLoop=1;jettySize=auto;html=1;exitX=1;exitY=0.5;exitDx=0;exitDy=0;entryX=0;entryY=0.5;entryDx=0;entryDy=0;" parent="1" source="Mi7K5WG5HpJbJ7n9Mypf-9" target="Mi7K5WG5HpJbJ7n9Mypf-20" edge="1">
          <mxGeometry relative="1" as="geometry" />
        </mxCell>
        <mxCell id="Mi7K5WG5HpJbJ7n9Mypf-24" style="edgeStyle=orthogonalEdgeStyle;rounded=0;orthogonalLoop=1;jettySize=auto;html=1;exitX=0.5;exitY=1;exitDx=0;exitDy=0;entryX=0.5;entryY=1;entryDx=0;entryDy=0;" parent="1" source="Mi7K5WG5HpJbJ7n9Mypf-9" target="Mi7K5WG5HpJbJ7n9Mypf-20" edge="1">
          <mxGeometry relative="1" as="geometry" />
        </mxCell>
        <mxCell id="Mi7K5WG5HpJbJ7n9Mypf-25" value="儿童" style="edgeLabel;html=1;align=center;verticalAlign=middle;resizable=0;points=[];" parent="Mi7K5WG5HpJbJ7n9Mypf-24" vertex="1" connectable="0">
          <mxGeometry x="-0.5704" y="1" relative="1" as="geometry">
            <mxPoint x="52" y="-50" as="offset" />
          </mxGeometry>
        </mxCell>
        <mxCell id="Ai90umAISFqosRrv_r8F-2" value="商务/技术" style="edgeLabel;html=1;align=center;verticalAlign=middle;resizable=0;points=[];" parent="Mi7K5WG5HpJbJ7n9Mypf-24" vertex="1" connectable="0">
          <mxGeometry x="-0.5727" y="-1" relative="1" as="geometry">
            <mxPoint x="7" as="offset" />
          </mxGeometry>
        </mxCell>
        <mxCell id="Mi7K5WG5HpJbJ7n9Mypf-9" value="分支节点7" style="rhombus;whiteSpace=wrap;html=1;" parent="1" vertex="1">
          <mxGeometry x="341" y="493" width="120" height="56" as="geometry" />
        </mxCell>
        <mxCell id="Mi7K5WG5HpJbJ7n9Mypf-17" value="结束节点" style="rounded=1;whiteSpace=wrap;html=1;" parent="1" vertex="1">
          <mxGeometry x="1032" y="491" width="120" height="60" as="geometry" />
        </mxCell>
        <mxCell id="Mi7K5WG5HpJbJ7n9Mypf-29" style="edgeStyle=orthogonalEdgeStyle;rounded=0;orthogonalLoop=1;jettySize=auto;html=1;exitX=1;exitY=0.5;exitDx=0;exitDy=0;" parent="1" source="Mi7K5WG5HpJbJ7n9Mypf-20" target="Mi7K5WG5HpJbJ7n9Mypf-28" edge="1">
          <mxGeometry relative="1" as="geometry" />
        </mxCell>
        <mxCell id="Mi7K5WG5HpJbJ7n9Mypf-20" value="大模型节点" style="rounded=0;whiteSpace=wrap;html=1;" parent="1" vertex="1">
          <mxGeometry x="530" y="491" width="120" height="60" as="geometry" />
        </mxCell>
        <mxCell id="Mi7K5WG5HpJbJ7n9Mypf-30" style="edgeStyle=orthogonalEdgeStyle;rounded=0;orthogonalLoop=1;jettySize=auto;html=1;exitX=1;exitY=0.5;exitDx=0;exitDy=0;entryX=0;entryY=0.5;entryDx=0;entryDy=0;" parent="1" source="Mi7K5WG5HpJbJ7n9Mypf-28" target="Mi7K5WG5HpJbJ7n9Mypf-17" edge="1">
          <mxGeometry relative="1" as="geometry" />
        </mxCell>
        <mxCell id="Mi7K5WG5HpJbJ7n9Mypf-28" value="消息节点7" style="rounded=0;whiteSpace=wrap;html=1;" parent="1" vertex="1">
          <mxGeometry x="682" y="490" width="120" height="62" as="geometry" />
        </mxCell>
        <mxCell id="Mi7K5WG5HpJbJ7n9Mypf-59" style="edgeStyle=orthogonalEdgeStyle;rounded=0;orthogonalLoop=1;jettySize=auto;html=1;exitX=0.5;exitY=1;exitDx=0;exitDy=0;entryX=0;entryY=0.5;entryDx=0;entryDy=0;" parent="1" source="1wLSgyPM6Hem4SAJeHQH-82" target="Mi7K5WG5HpJbJ7n9Mypf-58" edge="1">
          <mxGeometry relative="1" as="geometry">
            <mxPoint x="590" y="203" as="sourcePoint" />
          </mxGeometry>
        </mxCell>
        <mxCell id="Mi7K5WG5HpJbJ7n9Mypf-78" value="取消抢占" style="edgeLabel;html=1;align=center;verticalAlign=middle;resizable=0;points=[];" parent="Mi7K5WG5HpJbJ7n9Mypf-59" vertex="1" connectable="0">
          <mxGeometry x="-0.61" y="-2" relative="1" as="geometry">
            <mxPoint x="5" y="-11" as="offset" />
          </mxGeometry>
        </mxCell>
        <mxCell id="Mi7K5WG5HpJbJ7n9Mypf-38" style="edgeStyle=orthogonalEdgeStyle;rounded=0;orthogonalLoop=1;jettySize=auto;html=1;exitX=1;exitY=0.5;exitDx=0;exitDy=0;entryX=0;entryY=0.5;entryDx=0;entryDy=0;" parent="1" source="Mi7K5WG5HpJbJ7n9Mypf-33" target="Mi7K5WG5HpJbJ7n9Mypf-39" edge="1">
          <mxGeometry relative="1" as="geometry">
            <mxPoint x="680" y="342.9999999999998" as="targetPoint" />
          </mxGeometry>
        </mxCell>
        <mxCell id="Mi7K5WG5HpJbJ7n9Mypf-44" value="儿童" style="edgeLabel;html=1;align=center;verticalAlign=middle;resizable=0;points=[];" parent="Mi7K5WG5HpJbJ7n9Mypf-38" vertex="1" connectable="0">
          <mxGeometry x="-0.2046" y="-1" relative="1" as="geometry">
            <mxPoint y="-1" as="offset" />
          </mxGeometry>
        </mxCell>
        <mxCell id="Mi7K5WG5HpJbJ7n9Mypf-42" style="edgeStyle=orthogonalEdgeStyle;rounded=0;orthogonalLoop=1;jettySize=auto;html=1;exitX=0.5;exitY=0;exitDx=0;exitDy=0;entryX=0;entryY=0.5;entryDx=0;entryDy=0;" parent="1" source="Mi7K5WG5HpJbJ7n9Mypf-33" target="Mi7K5WG5HpJbJ7n9Mypf-41" edge="1">
          <mxGeometry relative="1" as="geometry" />
        </mxCell>
        <mxCell id="Mi7K5WG5HpJbJ7n9Mypf-43" value="商务/技术" style="edgeLabel;html=1;align=center;verticalAlign=middle;resizable=0;points=[];" parent="Mi7K5WG5HpJbJ7n9Mypf-42" vertex="1" connectable="0">
          <mxGeometry x="-0.7962" relative="1" as="geometry">
            <mxPoint as="offset" />
          </mxGeometry>
        </mxCell>
        <mxCell id="Mi7K5WG5HpJbJ7n9Mypf-33" value="分支节点5" style="rhombus;whiteSpace=wrap;html=1;" parent="1" vertex="1">
          <mxGeometry x="520" y="317" width="120" height="56" as="geometry" />
        </mxCell>
        <mxCell id="1wLSgyPM6Hem4SAJeHQH-73" style="edgeStyle=orthogonalEdgeStyle;rounded=0;orthogonalLoop=1;jettySize=auto;html=1;exitX=1;exitY=0.5;exitDx=0;exitDy=0;entryX=0;entryY=0.5;entryDx=0;entryDy=0;" parent="1" source="Mi7K5WG5HpJbJ7n9Mypf-39" target="1wLSgyPM6Hem4SAJeHQH-80" edge="1">
          <mxGeometry relative="1" as="geometry">
            <mxPoint x="850" y="266" as="targetPoint" />
          </mxGeometry>
        </mxCell>
        <mxCell id="Mi7K5WG5HpJbJ7n9Mypf-39" value="消息节点5" style="rounded=0;whiteSpace=wrap;html=1;" parent="1" vertex="1">
          <mxGeometry x="682" y="313" width="120" height="62" as="geometry" />
        </mxCell>
        <mxCell id="1wLSgyPM6Hem4SAJeHQH-72" style="edgeStyle=orthogonalEdgeStyle;rounded=0;orthogonalLoop=1;jettySize=auto;html=1;exitX=1;exitY=0.5;exitDx=0;exitDy=0;entryX=0;entryY=0.5;entryDx=0;entryDy=0;" parent="1" source="Mi7K5WG5HpJbJ7n9Mypf-41" target="1wLSgyPM6Hem4SAJeHQH-80" edge="1">
          <mxGeometry relative="1" as="geometry">
            <mxPoint x="890" y="200" as="targetPoint" />
          </mxGeometry>
        </mxCell>
        <mxCell id="Mi7K5WG5HpJbJ7n9Mypf-41" value="消息节点3" style="rounded=0;whiteSpace=wrap;html=1;" parent="1" vertex="1">
          <mxGeometry x="682" y="235" width="120" height="62" as="geometry" />
        </mxCell>
        <mxCell id="Mi7K5WG5HpJbJ7n9Mypf-48" value="&lt;font style=&quot;font-size: 8px;&quot;&gt;排队话术&lt;/font&gt;" style="text;html=1;align=center;verticalAlign=middle;whiteSpace=wrap;rounded=0;" parent="1" vertex="1">
          <mxGeometry x="682" y="235" width="40" height="12" as="geometry" />
        </mxCell>
        <mxCell id="Mi7K5WG5HpJbJ7n9Mypf-50" value="&lt;font style=&quot;font-size: 8px;&quot;&gt;排队话术&lt;/font&gt;" style="text;html=1;align=center;verticalAlign=middle;whiteSpace=wrap;rounded=0;" parent="1" vertex="1">
          <mxGeometry x="682" y="313" width="40" height="12" as="geometry" />
        </mxCell>
        <mxCell id="Mi7K5WG5HpJbJ7n9Mypf-52" value="&lt;font style=&quot;font-size: 8px;&quot;&gt;展品讲解&lt;/font&gt;" style="text;html=1;align=center;verticalAlign=middle;whiteSpace=wrap;rounded=0;" parent="1" vertex="1">
          <mxGeometry x="682" y="491" width="40" height="12" as="geometry" />
        </mxCell>
        <mxCell id="Mi7K5WG5HpJbJ7n9Mypf-53" value="&lt;span style=&quot;font-size: 8px;&quot;&gt;生成讲解词&lt;/span&gt;" style="text;html=1;align=center;verticalAlign=middle;whiteSpace=wrap;rounded=0;" parent="1" vertex="1">
          <mxGeometry x="530" y="491" width="50" height="10" as="geometry" />
        </mxCell>
        <mxCell id="Mi7K5WG5HpJbJ7n9Mypf-65" style="edgeStyle=orthogonalEdgeStyle;rounded=0;orthogonalLoop=1;jettySize=auto;html=1;exitX=1;exitY=0.5;exitDx=0;exitDy=0;entryX=0.5;entryY=0;entryDx=0;entryDy=0;" parent="1" source="1wLSgyPM6Hem4SAJeHQH-82" target="Mi7K5WG5HpJbJ7n9Mypf-17" edge="1">
          <mxGeometry relative="1" as="geometry">
            <mxPoint x="1122" y="349" as="targetPoint" />
            <mxPoint x="802" y="110.00000000000023" as="sourcePoint" />
          </mxGeometry>
        </mxCell>
        <mxCell id="1wLSgyPM6Hem4SAJeHQH-87" value="抢占" style="edgeLabel;html=1;align=center;verticalAlign=middle;resizable=0;points=[];" parent="Mi7K5WG5HpJbJ7n9Mypf-65" vertex="1" connectable="0">
          <mxGeometry x="-0.9598" y="-2" relative="1" as="geometry">
            <mxPoint x="5" as="offset" />
          </mxGeometry>
        </mxCell>
        <mxCell id="Mi7K5WG5HpJbJ7n9Mypf-66" style="edgeStyle=orthogonalEdgeStyle;rounded=0;orthogonalLoop=1;jettySize=auto;html=1;exitX=1;exitY=0.5;exitDx=0;exitDy=0;" parent="1" source="Mi7K5WG5HpJbJ7n9Mypf-58" target="1wLSgyPM6Hem4SAJeHQH-80" edge="1">
          <mxGeometry relative="1" as="geometry">
            <mxPoint x="1182" y="369" as="targetPoint" />
          </mxGeometry>
        </mxCell>
        <mxCell id="Mi7K5WG5HpJbJ7n9Mypf-58" value="消息节点2" style="rounded=0;whiteSpace=wrap;html=1;" parent="1" vertex="1">
          <mxGeometry x="682" y="163" width="120" height="62" as="geometry" />
        </mxCell>
        <mxCell id="Mi7K5WG5HpJbJ7n9Mypf-60" value="&lt;font style=&quot;font-size: 8px;&quot;&gt;排队话术&lt;/font&gt;" style="text;html=1;align=center;verticalAlign=middle;whiteSpace=wrap;rounded=0;" parent="1" vertex="1">
          <mxGeometry x="682" y="163" width="40" height="12" as="geometry" />
        </mxCell>
        <mxCell id="Mi7K5WG5HpJbJ7n9Mypf-61" value="消息节点8" style="rounded=0;whiteSpace=wrap;html=1;" parent="1" vertex="1">
          <mxGeometry x="550" y="612" width="120" height="60" as="geometry" />
        </mxCell>
        <mxCell id="Mi7K5WG5HpJbJ7n9Mypf-68" value="排队抢占流程图" style="text;html=1;align=center;verticalAlign=middle;whiteSpace=wrap;rounded=0;" parent="1" vertex="1">
          <mxGeometry x="527" width="115" height="30" as="geometry" />
        </mxCell>
        <mxCell id="Mi7K5WG5HpJbJ7n9Mypf-72" style="edgeStyle=orthogonalEdgeStyle;rounded=0;orthogonalLoop=1;jettySize=auto;html=1;exitX=1;exitY=0.5;exitDx=0;exitDy=0;entryX=0;entryY=0.5;entryDx=0;entryDy=0;" parent="1" source="Mi7K5WG5HpJbJ7n9Mypf-69" target="Mi7K5WG5HpJbJ7n9Mypf-33" edge="1">
          <mxGeometry relative="1" as="geometry" />
        </mxCell>
        <mxCell id="Mi7K5WG5HpJbJ7n9Mypf-77" value="未抢占" style="edgeLabel;html=1;align=center;verticalAlign=middle;resizable=0;points=[];" parent="Mi7K5WG5HpJbJ7n9Mypf-72" vertex="1" connectable="0">
          <mxGeometry x="-0.3598" relative="1" as="geometry">
            <mxPoint x="7" as="offset" />
          </mxGeometry>
        </mxCell>
        <mxCell id="Mi7K5WG5HpJbJ7n9Mypf-73" style="edgeStyle=orthogonalEdgeStyle;rounded=0;orthogonalLoop=1;jettySize=auto;html=1;exitX=0.5;exitY=1;exitDx=0;exitDy=0;entryX=0;entryY=0.5;entryDx=0;entryDy=0;" parent="1" source="Mi7K5WG5HpJbJ7n9Mypf-69" target="Mi7K5WG5HpJbJ7n9Mypf-70" edge="1">
          <mxGeometry relative="1" as="geometry" />
        </mxCell>
        <mxCell id="Mi7K5WG5HpJbJ7n9Mypf-75" value="被抢占" style="edgeLabel;html=1;align=center;verticalAlign=middle;resizable=0;points=[];" parent="Mi7K5WG5HpJbJ7n9Mypf-73" vertex="1" connectable="0">
          <mxGeometry x="-0.9017" y="-1" relative="1" as="geometry">
            <mxPoint as="offset" />
          </mxGeometry>
        </mxCell>
        <mxCell id="Mi7K5WG5HpJbJ7n9Mypf-69" value="分支节点" style="rhombus;whiteSpace=wrap;html=1;" parent="1" vertex="1">
          <mxGeometry x="341" y="317" width="120" height="56" as="geometry" />
        </mxCell>
        <mxCell id="Mi7K5WG5HpJbJ7n9Mypf-74" style="edgeStyle=orthogonalEdgeStyle;rounded=0;orthogonalLoop=1;jettySize=auto;html=1;exitX=1;exitY=0.5;exitDx=0;exitDy=0;entryX=0.5;entryY=0;entryDx=0;entryDy=0;" parent="1" source="Mi7K5WG5HpJbJ7n9Mypf-70" target="Mi7K5WG5HpJbJ7n9Mypf-17" edge="1">
          <mxGeometry relative="1" as="geometry" />
        </mxCell>
        <mxCell id="Mi7K5WG5HpJbJ7n9Mypf-70" value="消息节点6" style="rounded=0;whiteSpace=wrap;html=1;" parent="1" vertex="1">
          <mxGeometry x="682" y="394" width="120" height="62" as="geometry" />
        </mxCell>
        <mxCell id="Mi7K5WG5HpJbJ7n9Mypf-71" value="&lt;font style=&quot;font-size: 8px;&quot;&gt;设备已被抢占，服务结束&lt;/font&gt;" style="text;html=1;align=center;verticalAlign=middle;whiteSpace=wrap;rounded=0;" parent="1" vertex="1">
          <mxGeometry x="682" y="394" width="98" height="12" as="geometry" />
        </mxCell>
        <mxCell id="Mi7K5WG5HpJbJ7n9Mypf-87" style="edgeStyle=orthogonalEdgeStyle;rounded=0;orthogonalLoop=1;jettySize=auto;html=1;exitX=0.5;exitY=1;exitDx=0;exitDy=0;entryX=0.5;entryY=0;entryDx=0;entryDy=0;" parent="1" source="1wLSgyPM6Hem4SAJeHQH-77" target="Mi7K5WG5HpJbJ7n9Mypf-17" edge="1">
          <mxGeometry relative="1" as="geometry">
            <mxPoint x="990" y="305" as="sourcePoint" />
            <Array as="points">
              <mxPoint x="910" y="400" />
              <mxPoint x="1092" y="400" />
            </Array>
          </mxGeometry>
        </mxCell>
        <mxCell id="1wLSgyPM6Hem4SAJeHQH-88" value="伴听" style="edgeLabel;html=1;align=center;verticalAlign=middle;resizable=0;points=[];" parent="Mi7K5WG5HpJbJ7n9Mypf-87" vertex="1" connectable="0">
          <mxGeometry x="-0.912" relative="1" as="geometry">
            <mxPoint as="offset" />
          </mxGeometry>
        </mxCell>
        <mxCell id="1wLSgyPM6Hem4SAJeHQH-12" style="edgeStyle=orthogonalEdgeStyle;rounded=0;orthogonalLoop=1;jettySize=auto;html=1;exitX=0.5;exitY=0;exitDx=0;exitDy=0;entryX=0.5;entryY=1;entryDx=0;entryDy=0;" parent="1" source="1wLSgyPM6Hem4SAJeHQH-16" target="1wLSgyPM6Hem4SAJeHQH-83" edge="1">
          <mxGeometry relative="1" as="geometry">
            <mxPoint x="461" y="193" as="targetPoint" />
          </mxGeometry>
        </mxCell>
        <mxCell id="1wLSgyPM6Hem4SAJeHQH-13" value="VIP" style="edgeLabel;html=1;align=center;verticalAlign=middle;resizable=0;points=[];" parent="1wLSgyPM6Hem4SAJeHQH-12" vertex="1" connectable="0">
          <mxGeometry x="-0.8159" relative="1" as="geometry">
            <mxPoint y="-7" as="offset" />
          </mxGeometry>
        </mxCell>
        <mxCell id="1wLSgyPM6Hem4SAJeHQH-14" style="edgeStyle=orthogonalEdgeStyle;rounded=0;orthogonalLoop=1;jettySize=auto;html=1;exitX=0.5;exitY=1;exitDx=0;exitDy=0;entryX=0.5;entryY=0;entryDx=0;entryDy=0;" parent="1" source="1wLSgyPM6Hem4SAJeHQH-16" target="1wLSgyPM6Hem4SAJeHQH-59" edge="1">
          <mxGeometry relative="1" as="geometry">
            <mxPoint x="370" y="369" as="targetPoint" />
          </mxGeometry>
        </mxCell>
        <mxCell id="1wLSgyPM6Hem4SAJeHQH-15" value="普通/游客" style="edgeLabel;html=1;align=center;verticalAlign=middle;resizable=0;points=[];" parent="1wLSgyPM6Hem4SAJeHQH-14" vertex="1" connectable="0">
          <mxGeometry x="-0.7717" relative="1" as="geometry">
            <mxPoint y="8" as="offset" />
          </mxGeometry>
        </mxCell>
        <mxCell id="1wLSgyPM6Hem4SAJeHQH-16" value="分支节点2" style="rhombus;whiteSpace=wrap;html=1;" parent="1" vertex="1">
          <mxGeometry x="341" y="219" width="120" height="56" as="geometry" />
        </mxCell>
        <mxCell id="1wLSgyPM6Hem4SAJeHQH-41" value="&lt;font style=&quot;font-size: 8px;&quot;&gt;排队话术&lt;/font&gt;" style="text;html=1;align=center;verticalAlign=middle;whiteSpace=wrap;rounded=0;" parent="1" vertex="1">
          <mxGeometry x="682" y="235" width="40" height="12" as="geometry" />
        </mxCell>
        <mxCell id="1wLSgyPM6Hem4SAJeHQH-43" value="&lt;font style=&quot;font-size: 8px;&quot;&gt;展品讲解&lt;/font&gt;" style="text;html=1;align=center;verticalAlign=middle;whiteSpace=wrap;rounded=0;" parent="1" vertex="1">
          <mxGeometry x="682" y="491" width="40" height="12" as="geometry" />
        </mxCell>
        <mxCell id="1wLSgyPM6Hem4SAJeHQH-44" value="&lt;span style=&quot;font-size: 8px;&quot;&gt;生成讲解词&lt;/span&gt;" style="text;html=1;align=center;verticalAlign=middle;whiteSpace=wrap;rounded=0;" parent="1" vertex="1">
          <mxGeometry x="530" y="491" width="50" height="10" as="geometry" />
        </mxCell>
        <mxCell id="1wLSgyPM6Hem4SAJeHQH-50" value="&lt;font style=&quot;font-size: 8px;&quot;&gt;排队话术&lt;/font&gt;" style="text;html=1;align=center;verticalAlign=middle;whiteSpace=wrap;rounded=0;" parent="1" vertex="1">
          <mxGeometry x="682" y="163" width="40" height="12" as="geometry" />
        </mxCell>
        <mxCell id="1wLSgyPM6Hem4SAJeHQH-78" style="edgeStyle=orthogonalEdgeStyle;rounded=0;orthogonalLoop=1;jettySize=auto;html=1;exitX=1;exitY=0.5;exitDx=0;exitDy=0;entryX=0.5;entryY=1;entryDx=0;entryDy=0;" parent="1" source="Mi7K5WG5HpJbJ7n9Mypf-61" target="Mi7K5WG5HpJbJ7n9Mypf-17" edge="1">
          <mxGeometry relative="1" as="geometry">
            <mxPoint x="670" y="660" as="sourcePoint" />
          </mxGeometry>
        </mxCell>
        <mxCell id="1wLSgyPM6Hem4SAJeHQH-53" value="&lt;font style=&quot;font-size: 8px;&quot;&gt;设备损坏&lt;/font&gt;" style="text;html=1;align=center;verticalAlign=middle;whiteSpace=wrap;rounded=0;" parent="1" vertex="1">
          <mxGeometry x="550" y="612" width="40" height="10" as="geometry" />
        </mxCell>
        <mxCell id="1wLSgyPM6Hem4SAJeHQH-54" value="排队抢占流程图" style="text;html=1;align=center;verticalAlign=middle;whiteSpace=wrap;rounded=0;" parent="1" vertex="1">
          <mxGeometry x="527" width="115" height="30" as="geometry" />
        </mxCell>
        <mxCell id="1wLSgyPM6Hem4SAJeHQH-59" value="分支节点4" style="rhombus;whiteSpace=wrap;html=1;" parent="1" vertex="1">
          <mxGeometry x="341" y="317" width="120" height="56" as="geometry" />
        </mxCell>
        <mxCell id="1wLSgyPM6Hem4SAJeHQH-63" style="edgeStyle=orthogonalEdgeStyle;rounded=0;orthogonalLoop=1;jettySize=auto;html=1;exitX=1;exitY=0.5;exitDx=0;exitDy=0;entryX=0.5;entryY=0;entryDx=0;entryDy=0;" parent="1" source="1wLSgyPM6Hem4SAJeHQH-77" target="Mi7K5WG5HpJbJ7n9Mypf-17" edge="1">
          <mxGeometry relative="1" as="geometry">
            <mxPoint x="990" y="320" as="sourcePoint" />
            <mxPoint x="1180" y="420" as="targetPoint" />
          </mxGeometry>
        </mxCell>
        <mxCell id="1wLSgyPM6Hem4SAJeHQH-64" value="取消伴听" style="edgeLabel;html=1;align=center;verticalAlign=middle;resizable=0;points=[];" parent="1wLSgyPM6Hem4SAJeHQH-63" vertex="1" connectable="0">
          <mxGeometry x="-0.7723" y="-1" relative="1" as="geometry">
            <mxPoint x="7" y="-1" as="offset" />
          </mxGeometry>
        </mxCell>
        <mxCell id="1wLSgyPM6Hem4SAJeHQH-79" style="edgeStyle=orthogonalEdgeStyle;rounded=0;orthogonalLoop=1;jettySize=auto;html=1;exitX=0.5;exitY=1;exitDx=0;exitDy=0;entryX=0.5;entryY=0;entryDx=0;entryDy=0;" parent="1" target="1wLSgyPM6Hem4SAJeHQH-77" edge="1">
          <mxGeometry relative="1" as="geometry">
            <mxPoint x="910" y="296" as="sourcePoint" />
          </mxGeometry>
        </mxCell>
        <mxCell id="1wLSgyPM6Hem4SAJeHQH-77" value="分支节点6" style="rhombus;whiteSpace=wrap;html=1;" parent="1" vertex="1">
          <mxGeometry x="850" y="317" width="120" height="56" as="geometry" />
        </mxCell>
        <mxCell id="1wLSgyPM6Hem4SAJeHQH-80" value="消息节点4" style="rounded=0;whiteSpace=wrap;html=1;" parent="1" vertex="1">
          <mxGeometry x="850" y="236" width="120" height="60" as="geometry" />
        </mxCell>
        <mxCell id="1wLSgyPM6Hem4SAJeHQH-81" value="&lt;font style=&quot;font-size: 8px;&quot;&gt;伴听通知&lt;/font&gt;" style="text;html=1;align=center;verticalAlign=middle;whiteSpace=wrap;rounded=0;" parent="1" vertex="1">
          <mxGeometry x="850" y="235" width="40" height="12" as="geometry" />
        </mxCell>
        <mxCell id="1wLSgyPM6Hem4SAJeHQH-82" value="分支节点3" style="rhombus;whiteSpace=wrap;html=1;" parent="1" vertex="1">
          <mxGeometry x="510" y="104" width="120" height="56" as="geometry" />
        </mxCell>
        <mxCell id="1wLSgyPM6Hem4SAJeHQH-86" style="edgeStyle=orthogonalEdgeStyle;rounded=0;orthogonalLoop=1;jettySize=auto;html=1;exitX=1;exitY=0.5;exitDx=0;exitDy=0;entryX=0;entryY=0.5;entryDx=0;entryDy=0;" parent="1" source="1wLSgyPM6Hem4SAJeHQH-83" target="1wLSgyPM6Hem4SAJeHQH-82" edge="1">
          <mxGeometry relative="1" as="geometry" />
        </mxCell>
        <mxCell id="1wLSgyPM6Hem4SAJeHQH-83" value="消息节点1" style="rounded=0;whiteSpace=wrap;html=1;" parent="1" vertex="1">
          <mxGeometry x="341" y="101" width="120" height="62" as="geometry" />
        </mxCell>
        <mxCell id="1wLSgyPM6Hem4SAJeHQH-84" value="&lt;font style=&quot;font-size: 8px;&quot;&gt;抢占通知&lt;/font&gt;" style="text;html=1;align=center;verticalAlign=middle;whiteSpace=wrap;rounded=0;" parent="1" vertex="1">
          <mxGeometry x="341" y="101" width="40" height="12" as="geometry" />
        </mxCell>
        <mxCell id="Ui3R6bgmoIIFnqbVHPds-1" value="type:引导词/提示词&lt;div&gt;role:主动/伴听&lt;/div&gt;&lt;div&gt;event:离开展区/展厅&lt;/div&gt;&lt;div&gt;style:商务/技术/儿童&lt;br&gt;conditions:&lt;/div&gt;&lt;div&gt;&lt;span style=&quot;white-space: pre;&quot;&gt;&#x9;&lt;/span&gt;status:VIP/普通/游客-VIP or 其他&lt;/div&gt;&lt;div&gt;&lt;span style=&quot;white-space: pre;&quot;&gt;&#x9;&lt;/span&gt;preempt: 是否抢占-抢占 or 其他&lt;/div&gt;&lt;div&gt;&lt;span style=&quot;white-space: pre;&quot;&gt;&#x9;&lt;/span&gt;preempted 是否被抢占-被抢占 or 其他&lt;br&gt;&lt;/div&gt;&lt;div&gt;&lt;span style=&quot;white-space: pre;&quot;&gt;&#x9;&lt;/span&gt;accompany:是否伴听 伴听 or 其他&lt;/div&gt;&lt;div&gt;&lt;span style=&quot;white-space: pre;&quot;&gt;&#x9;&lt;/span&gt;use:使用/空闲/无响应- 使用 or 空闲 or 其他&lt;/div&gt;" style="text;html=1;align=left;verticalAlign=middle;resizable=0;points=[];autosize=1;strokeColor=none;fillColor=none;" parent="1" vertex="1">
          <mxGeometry x="5" y="15" width="280" height="160" as="geometry" />
        </mxCell>
        <mxCell id="i1MSV0jCWOu87I4LwM3I-1" style="edgeStyle=orthogonalEdgeStyle;rounded=0;orthogonalLoop=1;jettySize=auto;html=1;exitX=1;exitY=0.5;exitDx=0;exitDy=0;entryX=0;entryY=0.5;entryDx=0;entryDy=0;" edge="1" parent="1" source="i1MSV0jCWOu87I4LwM3I-2" target="i1MSV0jCWOu87I4LwM3I-11">
          <mxGeometry relative="1" as="geometry" />
        </mxCell>
        <mxCell id="i1MSV0jCWOu87I4LwM3I-2" value="开始节点" style="rounded=1;whiteSpace=wrap;html=1;" vertex="1" parent="1">
          <mxGeometry x="63" y="1121" width="120" height="60" as="geometry" />
        </mxCell>
        <mxCell id="i1MSV0jCWOu87I4LwM3I-3" style="edgeStyle=orthogonalEdgeStyle;rounded=0;orthogonalLoop=1;jettySize=auto;html=1;exitX=0.5;exitY=0.5;exitDx=0;exitDy=0;exitPerimeter=0;entryX=0;entryY=0.5;entryDx=0;entryDy=0;" edge="1" parent="1" source="i1MSV0jCWOu87I4LwM3I-4" target="i1MSV0jCWOu87I4LwM3I-2">
          <mxGeometry relative="1" as="geometry" />
        </mxCell>
        <mxCell id="i1MSV0jCWOu87I4LwM3I-4" value="Actor" style="shape=umlActor;verticalLabelPosition=bottom;verticalAlign=top;html=1;outlineConnect=0;" vertex="1" parent="1">
          <mxGeometry x="16" y="1121" width="30" height="60" as="geometry" />
        </mxCell>
        <mxCell id="i1MSV0jCWOu87I4LwM3I-7" style="edgeStyle=orthogonalEdgeStyle;rounded=0;orthogonalLoop=1;jettySize=auto;html=1;exitX=1;exitY=0.5;exitDx=0;exitDy=0;" edge="1" parent="1" source="i1MSV0jCWOu87I4LwM3I-11" target="i1MSV0jCWOu87I4LwM3I-19">
          <mxGeometry relative="1" as="geometry">
            <mxPoint x="344" y="1239" as="sourcePoint" />
          </mxGeometry>
        </mxCell>
        <mxCell id="i1MSV0jCWOu87I4LwM3I-8" value="空闲中" style="edgeLabel;html=1;align=center;verticalAlign=middle;resizable=0;points=[];" vertex="1" connectable="0" parent="i1MSV0jCWOu87I4LwM3I-7">
          <mxGeometry x="-0.5406" relative="1" as="geometry">
            <mxPoint x="-5" as="offset" />
          </mxGeometry>
        </mxCell>
        <mxCell id="i1MSV0jCWOu87I4LwM3I-9" value="" style="edgeStyle=orthogonalEdgeStyle;rounded=0;orthogonalLoop=1;jettySize=auto;html=1;entryX=0;entryY=0.5;entryDx=0;entryDy=0;exitX=0.5;exitY=1;exitDx=0;exitDy=0;" edge="1" parent="1" source="i1MSV0jCWOu87I4LwM3I-11" target="i1MSV0jCWOu87I4LwM3I-45">
          <mxGeometry relative="1" as="geometry">
            <mxPoint x="349" y="1319" as="targetPoint" />
          </mxGeometry>
        </mxCell>
        <mxCell id="i1MSV0jCWOu87I4LwM3I-10" value="无法使用" style="edgeLabel;html=1;align=center;verticalAlign=middle;resizable=0;points=[];" vertex="1" connectable="0" parent="i1MSV0jCWOu87I4LwM3I-9">
          <mxGeometry x="-0.7061" y="-1" relative="1" as="geometry">
            <mxPoint y="-42" as="offset" />
          </mxGeometry>
        </mxCell>
        <mxCell id="i1MSV0jCWOu87I4LwM3I-11" value="分支节点1" style="rhombus;whiteSpace=wrap;html=1;" vertex="1" parent="1">
          <mxGeometry x="200" y="1123" width="120" height="56" as="geometry" />
        </mxCell>
        <mxCell id="i1MSV0jCWOu87I4LwM3I-15" style="edgeStyle=orthogonalEdgeStyle;rounded=0;orthogonalLoop=1;jettySize=auto;html=1;exitX=1;exitY=0.5;exitDx=0;exitDy=0;entryX=0;entryY=0.5;entryDx=0;entryDy=0;" edge="1" parent="1" source="i1MSV0jCWOu87I4LwM3I-19" target="i1MSV0jCWOu87I4LwM3I-22">
          <mxGeometry relative="1" as="geometry" />
        </mxCell>
        <mxCell id="i1MSV0jCWOu87I4LwM3I-16" style="edgeStyle=orthogonalEdgeStyle;rounded=0;orthogonalLoop=1;jettySize=auto;html=1;exitX=0.5;exitY=1;exitDx=0;exitDy=0;entryX=0.5;entryY=1;entryDx=0;entryDy=0;" edge="1" parent="1" source="i1MSV0jCWOu87I4LwM3I-19" target="i1MSV0jCWOu87I4LwM3I-22">
          <mxGeometry relative="1" as="geometry" />
        </mxCell>
        <mxCell id="i1MSV0jCWOu87I4LwM3I-17" value="儿童" style="edgeLabel;html=1;align=center;verticalAlign=middle;resizable=0;points=[];" vertex="1" connectable="0" parent="i1MSV0jCWOu87I4LwM3I-16">
          <mxGeometry x="-0.5704" y="1" relative="1" as="geometry">
            <mxPoint x="52" y="-50" as="offset" />
          </mxGeometry>
        </mxCell>
        <mxCell id="i1MSV0jCWOu87I4LwM3I-18" value="商务/技术" style="edgeLabel;html=1;align=center;verticalAlign=middle;resizable=0;points=[];" vertex="1" connectable="0" parent="i1MSV0jCWOu87I4LwM3I-16">
          <mxGeometry x="-0.5727" y="-1" relative="1" as="geometry">
            <mxPoint x="7" as="offset" />
          </mxGeometry>
        </mxCell>
        <mxCell id="i1MSV0jCWOu87I4LwM3I-19" value="分支节点6" style="rhombus;whiteSpace=wrap;html=1;" vertex="1" parent="1">
          <mxGeometry x="349" y="1209" width="120" height="56" as="geometry" />
        </mxCell>
        <mxCell id="i1MSV0jCWOu87I4LwM3I-20" value="结束节点" style="rounded=1;whiteSpace=wrap;html=1;" vertex="1" parent="1">
          <mxGeometry x="1040" y="1207" width="120" height="60" as="geometry" />
        </mxCell>
        <mxCell id="i1MSV0jCWOu87I4LwM3I-21" style="edgeStyle=orthogonalEdgeStyle;rounded=0;orthogonalLoop=1;jettySize=auto;html=1;exitX=1;exitY=0.5;exitDx=0;exitDy=0;" edge="1" parent="1" source="i1MSV0jCWOu87I4LwM3I-22" target="i1MSV0jCWOu87I4LwM3I-24">
          <mxGeometry relative="1" as="geometry" />
        </mxCell>
        <mxCell id="i1MSV0jCWOu87I4LwM3I-22" value="大模型节点" style="rounded=0;whiteSpace=wrap;html=1;" vertex="1" parent="1">
          <mxGeometry x="538" y="1207" width="120" height="60" as="geometry" />
        </mxCell>
        <mxCell id="i1MSV0jCWOu87I4LwM3I-23" style="edgeStyle=orthogonalEdgeStyle;rounded=0;orthogonalLoop=1;jettySize=auto;html=1;exitX=1;exitY=0.5;exitDx=0;exitDy=0;entryX=0;entryY=0.5;entryDx=0;entryDy=0;" edge="1" parent="1" source="i1MSV0jCWOu87I4LwM3I-24" target="i1MSV0jCWOu87I4LwM3I-20">
          <mxGeometry relative="1" as="geometry" />
        </mxCell>
        <mxCell id="i1MSV0jCWOu87I4LwM3I-24" value="消息节点7" style="rounded=0;whiteSpace=wrap;html=1;" vertex="1" parent="1">
          <mxGeometry x="690" y="1206" width="120" height="62" as="geometry" />
        </mxCell>
        <mxCell id="i1MSV0jCWOu87I4LwM3I-29" style="edgeStyle=orthogonalEdgeStyle;rounded=0;orthogonalLoop=1;jettySize=auto;html=1;exitX=0.5;exitY=1;exitDx=0;exitDy=0;entryX=0;entryY=0.5;entryDx=0;entryDy=0;" edge="1" parent="1" source="i1MSV0jCWOu87I4LwM3I-102" target="i1MSV0jCWOu87I4LwM3I-35">
          <mxGeometry relative="1" as="geometry">
            <mxPoint x="650" y="1022" as="sourcePoint" />
          </mxGeometry>
        </mxCell>
        <mxCell id="i1MSV0jCWOu87I4LwM3I-113" style="edgeStyle=orthogonalEdgeStyle;rounded=0;orthogonalLoop=1;jettySize=auto;html=1;exitX=1;exitY=0.5;exitDx=0;exitDy=0;entryX=0.5;entryY=0;entryDx=0;entryDy=0;" edge="1" parent="1" source="i1MSV0jCWOu87I4LwM3I-33" target="i1MSV0jCWOu87I4LwM3I-20">
          <mxGeometry relative="1" as="geometry" />
        </mxCell>
        <mxCell id="i1MSV0jCWOu87I4LwM3I-33" value="消息节点5" style="rounded=0;whiteSpace=wrap;html=1;" vertex="1" parent="1">
          <mxGeometry x="762" y="1036" width="120" height="62" as="geometry" />
        </mxCell>
        <mxCell id="i1MSV0jCWOu87I4LwM3I-34" style="edgeStyle=orthogonalEdgeStyle;rounded=0;orthogonalLoop=1;jettySize=auto;html=1;exitX=1;exitY=0.5;exitDx=0;exitDy=0;entryX=0.5;entryY=0;entryDx=0;entryDy=0;" edge="1" parent="1" source="i1MSV0jCWOu87I4LwM3I-35" target="i1MSV0jCWOu87I4LwM3I-20">
          <mxGeometry relative="1" as="geometry">
            <mxPoint x="898" y="905" as="targetPoint" />
          </mxGeometry>
        </mxCell>
        <mxCell id="i1MSV0jCWOu87I4LwM3I-35" value="消息节点3" style="rounded=0;whiteSpace=wrap;html=1;" vertex="1" parent="1">
          <mxGeometry x="762" y="865" width="120" height="62" as="geometry" />
        </mxCell>
        <mxCell id="i1MSV0jCWOu87I4LwM3I-36" value="&lt;font style=&quot;font-size: 8px;&quot;&gt;排队话术&lt;/font&gt;" style="text;html=1;align=center;verticalAlign=middle;whiteSpace=wrap;rounded=0;" vertex="1" parent="1">
          <mxGeometry x="762" y="865" width="40" height="12" as="geometry" />
        </mxCell>
        <mxCell id="i1MSV0jCWOu87I4LwM3I-37" value="&lt;font style=&quot;font-size: 8px;&quot;&gt;抢占引导&lt;/font&gt;" style="text;html=1;align=center;verticalAlign=middle;whiteSpace=wrap;rounded=0;" vertex="1" parent="1">
          <mxGeometry x="762" y="1036" width="40" height="12" as="geometry" />
        </mxCell>
        <mxCell id="i1MSV0jCWOu87I4LwM3I-38" value="&lt;font style=&quot;font-size: 8px;&quot;&gt;展品讲解&lt;/font&gt;" style="text;html=1;align=center;verticalAlign=middle;whiteSpace=wrap;rounded=0;" vertex="1" parent="1">
          <mxGeometry x="690" y="1207" width="40" height="12" as="geometry" />
        </mxCell>
        <mxCell id="i1MSV0jCWOu87I4LwM3I-39" value="&lt;span style=&quot;font-size: 8px;&quot;&gt;生成讲解词&lt;/span&gt;" style="text;html=1;align=center;verticalAlign=middle;whiteSpace=wrap;rounded=0;" vertex="1" parent="1">
          <mxGeometry x="538" y="1207" width="50" height="10" as="geometry" />
        </mxCell>
        <mxCell id="i1MSV0jCWOu87I4LwM3I-42" style="edgeStyle=orthogonalEdgeStyle;rounded=0;orthogonalLoop=1;jettySize=auto;html=1;exitX=1;exitY=0.5;exitDx=0;exitDy=0;entryX=0.5;entryY=0;entryDx=0;entryDy=0;" edge="1" parent="1" source="i1MSV0jCWOu87I4LwM3I-43" target="i1MSV0jCWOu87I4LwM3I-20">
          <mxGeometry relative="1" as="geometry">
            <mxPoint x="1190" y="1074" as="targetPoint" />
          </mxGeometry>
        </mxCell>
        <mxCell id="i1MSV0jCWOu87I4LwM3I-43" value="消息节点2" style="rounded=0;whiteSpace=wrap;html=1;" vertex="1" parent="1">
          <mxGeometry x="792" y="793" width="120" height="62" as="geometry" />
        </mxCell>
        <mxCell id="i1MSV0jCWOu87I4LwM3I-45" value="消息节点8" style="rounded=0;whiteSpace=wrap;html=1;" vertex="1" parent="1">
          <mxGeometry x="558" y="1328" width="120" height="60" as="geometry" />
        </mxCell>
        <mxCell id="i1MSV0jCWOu87I4LwM3I-51" style="edgeStyle=orthogonalEdgeStyle;rounded=0;orthogonalLoop=1;jettySize=auto;html=1;exitX=1;exitY=0.5;exitDx=0;exitDy=0;entryX=0.5;entryY=0;entryDx=0;entryDy=0;" edge="1" parent="1" source="i1MSV0jCWOu87I4LwM3I-52" target="i1MSV0jCWOu87I4LwM3I-20">
          <mxGeometry relative="1" as="geometry" />
        </mxCell>
        <mxCell id="i1MSV0jCWOu87I4LwM3I-52" value="消息节点6" style="rounded=0;whiteSpace=wrap;html=1;" vertex="1" parent="1">
          <mxGeometry x="612" y="990" width="120" height="62" as="geometry" />
        </mxCell>
        <mxCell id="i1MSV0jCWOu87I4LwM3I-53" value="&lt;font style=&quot;font-size: 8px;&quot;&gt;设备已被抢占，服务结束&lt;/font&gt;" style="text;html=1;align=center;verticalAlign=middle;whiteSpace=wrap;rounded=0;" vertex="1" parent="1">
          <mxGeometry x="612" y="990" width="98" height="12" as="geometry" />
        </mxCell>
        <mxCell id="i1MSV0jCWOu87I4LwM3I-61" value="&lt;font style=&quot;font-size: 8px;&quot;&gt;排队话术&lt;/font&gt;" style="text;html=1;align=center;verticalAlign=middle;whiteSpace=wrap;rounded=0;" vertex="1" parent="1">
          <mxGeometry x="762" y="865" width="40" height="12" as="geometry" />
        </mxCell>
        <mxCell id="i1MSV0jCWOu87I4LwM3I-62" value="&lt;font style=&quot;font-size: 8px;&quot;&gt;展品讲解&lt;/font&gt;" style="text;html=1;align=center;verticalAlign=middle;whiteSpace=wrap;rounded=0;" vertex="1" parent="1">
          <mxGeometry x="690" y="1207" width="40" height="12" as="geometry" />
        </mxCell>
        <mxCell id="i1MSV0jCWOu87I4LwM3I-63" value="&lt;span style=&quot;font-size: 8px;&quot;&gt;生成讲解词&lt;/span&gt;" style="text;html=1;align=center;verticalAlign=middle;whiteSpace=wrap;rounded=0;" vertex="1" parent="1">
          <mxGeometry x="538" y="1207" width="50" height="10" as="geometry" />
        </mxCell>
        <mxCell id="i1MSV0jCWOu87I4LwM3I-64" value="&lt;font style=&quot;font-size: 8px;&quot;&gt;排队话术&lt;/font&gt;" style="text;html=1;align=center;verticalAlign=middle;whiteSpace=wrap;rounded=0;" vertex="1" parent="1">
          <mxGeometry x="792" y="793" width="40" height="12" as="geometry" />
        </mxCell>
        <mxCell id="i1MSV0jCWOu87I4LwM3I-65" style="edgeStyle=orthogonalEdgeStyle;rounded=0;orthogonalLoop=1;jettySize=auto;html=1;exitX=1;exitY=0.5;exitDx=0;exitDy=0;entryX=0.5;entryY=1;entryDx=0;entryDy=0;" edge="1" parent="1" source="i1MSV0jCWOu87I4LwM3I-45" target="i1MSV0jCWOu87I4LwM3I-20">
          <mxGeometry relative="1" as="geometry">
            <mxPoint x="678" y="1376" as="sourcePoint" />
          </mxGeometry>
        </mxCell>
        <mxCell id="i1MSV0jCWOu87I4LwM3I-66" value="&lt;font style=&quot;font-size: 8px;&quot;&gt;设备损坏&lt;/font&gt;" style="text;html=1;align=center;verticalAlign=middle;whiteSpace=wrap;rounded=0;" vertex="1" parent="1">
          <mxGeometry x="558" y="1328" width="40" height="10" as="geometry" />
        </mxCell>
        <mxCell id="i1MSV0jCWOu87I4LwM3I-105" style="edgeStyle=orthogonalEdgeStyle;rounded=0;orthogonalLoop=1;jettySize=auto;html=1;exitX=1;exitY=0.5;exitDx=0;exitDy=0;entryX=0.5;entryY=0;entryDx=0;entryDy=0;" edge="1" parent="1" source="i1MSV0jCWOu87I4LwM3I-72" target="i1MSV0jCWOu87I4LwM3I-20">
          <mxGeometry relative="1" as="geometry">
            <mxPoint x="1100" y="1196" as="targetPoint" />
          </mxGeometry>
        </mxCell>
        <mxCell id="i1MSV0jCWOu87I4LwM3I-72" value="消息节点4" style="rounded=0;whiteSpace=wrap;html=1;" vertex="1" parent="1">
          <mxGeometry x="920" y="941" width="120" height="60" as="geometry" />
        </mxCell>
        <mxCell id="i1MSV0jCWOu87I4LwM3I-73" value="&lt;font style=&quot;font-size: 8px;&quot;&gt;伴听通知&lt;/font&gt;" style="text;html=1;align=center;verticalAlign=middle;whiteSpace=wrap;rounded=0;" vertex="1" parent="1">
          <mxGeometry x="920" y="940" width="40" height="12" as="geometry" />
        </mxCell>
        <mxCell id="i1MSV0jCWOu87I4LwM3I-78" value="" style="edgeStyle=orthogonalEdgeStyle;rounded=0;orthogonalLoop=1;jettySize=auto;html=1;exitX=0.5;exitY=0;exitDx=0;exitDy=0;entryX=0;entryY=0.5;entryDx=0;entryDy=0;" edge="1" parent="1" source="i1MSV0jCWOu87I4LwM3I-11" target="i1MSV0jCWOu87I4LwM3I-60">
          <mxGeometry relative="1" as="geometry">
            <mxPoint x="284" y="1112" as="sourcePoint" />
            <mxPoint x="349" y="952" as="targetPoint" />
          </mxGeometry>
        </mxCell>
        <mxCell id="i1MSV0jCWOu87I4LwM3I-79" value="使用中" style="edgeLabel;html=1;align=center;verticalAlign=middle;resizable=0;points=[];" vertex="1" connectable="0" parent="i1MSV0jCWOu87I4LwM3I-78">
          <mxGeometry x="-0.7501" relative="1" as="geometry">
            <mxPoint as="offset" />
          </mxGeometry>
        </mxCell>
        <mxCell id="i1MSV0jCWOu87I4LwM3I-91" style="edgeStyle=orthogonalEdgeStyle;rounded=0;orthogonalLoop=1;jettySize=auto;html=1;exitX=0.5;exitY=0;exitDx=0;exitDy=0;entryX=0;entryY=0.5;entryDx=0;entryDy=0;" edge="1" parent="1" source="i1MSV0jCWOu87I4LwM3I-60" target="i1MSV0jCWOu87I4LwM3I-95">
          <mxGeometry relative="1" as="geometry">
            <mxPoint x="422" y="893" as="targetPoint" />
          </mxGeometry>
        </mxCell>
        <mxCell id="i1MSV0jCWOu87I4LwM3I-92" style="edgeStyle=orthogonalEdgeStyle;rounded=0;orthogonalLoop=1;jettySize=auto;html=1;exitX=0.5;exitY=1;exitDx=0;exitDy=0;entryX=0;entryY=0.5;entryDx=0;entryDy=0;" edge="1" parent="1" source="i1MSV0jCWOu87I4LwM3I-60" target="i1MSV0jCWOu87I4LwM3I-101">
          <mxGeometry relative="1" as="geometry">
            <mxPoint x="482" y="1046" as="targetPoint" />
          </mxGeometry>
        </mxCell>
        <mxCell id="i1MSV0jCWOu87I4LwM3I-94" value="VIP" style="edgeLabel;html=1;align=center;verticalAlign=middle;resizable=0;points=[];" vertex="1" connectable="0" parent="i1MSV0jCWOu87I4LwM3I-92">
          <mxGeometry x="-0.9114" relative="1" as="geometry">
            <mxPoint x="1" y="7" as="offset" />
          </mxGeometry>
        </mxCell>
        <mxCell id="i1MSV0jCWOu87I4LwM3I-100" value="普通/游客" style="edgeLabel;html=1;align=center;verticalAlign=middle;resizable=0;points=[];" vertex="1" connectable="0" parent="i1MSV0jCWOu87I4LwM3I-92">
          <mxGeometry x="-0.8373" y="-1" relative="1" as="geometry">
            <mxPoint y="-80" as="offset" />
          </mxGeometry>
        </mxCell>
        <mxCell id="i1MSV0jCWOu87I4LwM3I-60" value="分支节点2" style="rhombus;whiteSpace=wrap;html=1;" vertex="1" parent="1">
          <mxGeometry x="286" y="938" width="120" height="56" as="geometry" />
        </mxCell>
        <mxCell id="i1MSV0jCWOu87I4LwM3I-96" style="edgeStyle=orthogonalEdgeStyle;rounded=0;orthogonalLoop=1;jettySize=auto;html=1;exitX=0.5;exitY=0;exitDx=0;exitDy=0;entryX=0;entryY=0.5;entryDx=0;entryDy=0;" edge="1" parent="1" source="i1MSV0jCWOu87I4LwM3I-95" target="i1MSV0jCWOu87I4LwM3I-102">
          <mxGeometry relative="1" as="geometry">
            <mxPoint x="552" y="756" as="targetPoint" />
          </mxGeometry>
        </mxCell>
        <mxCell id="i1MSV0jCWOu87I4LwM3I-98" value="排队" style="edgeLabel;html=1;align=center;verticalAlign=middle;resizable=0;points=[];" vertex="1" connectable="0" parent="i1MSV0jCWOu87I4LwM3I-96">
          <mxGeometry x="-0.8186" relative="1" as="geometry">
            <mxPoint as="offset" />
          </mxGeometry>
        </mxCell>
        <mxCell id="i1MSV0jCWOu87I4LwM3I-97" style="edgeStyle=orthogonalEdgeStyle;rounded=0;orthogonalLoop=1;jettySize=auto;html=1;exitX=1;exitY=0.5;exitDx=0;exitDy=0;entryX=0;entryY=0.5;entryDx=0;entryDy=0;" edge="1" parent="1" source="i1MSV0jCWOu87I4LwM3I-95" target="i1MSV0jCWOu87I4LwM3I-72">
          <mxGeometry relative="1" as="geometry">
            <mxPoint x="592" y="986" as="targetPoint" />
          </mxGeometry>
        </mxCell>
        <mxCell id="i1MSV0jCWOu87I4LwM3I-99" value="伴听" style="edgeLabel;html=1;align=center;verticalAlign=middle;resizable=0;points=[];" vertex="1" connectable="0" parent="i1MSV0jCWOu87I4LwM3I-97">
          <mxGeometry x="-0.8451" y="1" relative="1" as="geometry">
            <mxPoint as="offset" />
          </mxGeometry>
        </mxCell>
        <mxCell id="i1MSV0jCWOu87I4LwM3I-108" style="edgeStyle=orthogonalEdgeStyle;rounded=0;orthogonalLoop=1;jettySize=auto;html=1;exitX=0.5;exitY=1;exitDx=0;exitDy=0;entryX=0;entryY=0.5;entryDx=0;entryDy=0;" edge="1" parent="1" source="i1MSV0jCWOu87I4LwM3I-95" target="i1MSV0jCWOu87I4LwM3I-52">
          <mxGeometry relative="1" as="geometry" />
        </mxCell>
        <mxCell id="i1MSV0jCWOu87I4LwM3I-109" value="被VIP抢占" style="edgeLabel;html=1;align=center;verticalAlign=middle;resizable=0;points=[];" vertex="1" connectable="0" parent="i1MSV0jCWOu87I4LwM3I-108">
          <mxGeometry x="-0.9193" y="-1" relative="1" as="geometry">
            <mxPoint as="offset" />
          </mxGeometry>
        </mxCell>
        <mxCell id="i1MSV0jCWOu87I4LwM3I-95" value="分支节点3" style="rhombus;whiteSpace=wrap;html=1;" vertex="1" parent="1">
          <mxGeometry x="382" y="877" width="120" height="56" as="geometry" />
        </mxCell>
        <mxCell id="i1MSV0jCWOu87I4LwM3I-106" style="edgeStyle=orthogonalEdgeStyle;rounded=0;orthogonalLoop=1;jettySize=auto;html=1;exitX=1;exitY=0.5;exitDx=0;exitDy=0;" edge="1" parent="1" source="i1MSV0jCWOu87I4LwM3I-101" target="i1MSV0jCWOu87I4LwM3I-33">
          <mxGeometry relative="1" as="geometry" />
        </mxCell>
        <mxCell id="i1MSV0jCWOu87I4LwM3I-114" value="抢占" style="edgeLabel;html=1;align=center;verticalAlign=middle;resizable=0;points=[];" vertex="1" connectable="0" parent="i1MSV0jCWOu87I4LwM3I-106">
          <mxGeometry x="-0.737" y="-1" relative="1" as="geometry">
            <mxPoint as="offset" />
          </mxGeometry>
        </mxCell>
        <mxCell id="i1MSV0jCWOu87I4LwM3I-111" style="edgeStyle=orthogonalEdgeStyle;rounded=0;orthogonalLoop=1;jettySize=auto;html=1;exitX=0.5;exitY=1;exitDx=0;exitDy=0;entryX=0;entryY=0.5;entryDx=0;entryDy=0;" edge="1" parent="1" source="i1MSV0jCWOu87I4LwM3I-101" target="i1MSV0jCWOu87I4LwM3I-110">
          <mxGeometry relative="1" as="geometry">
            <mxPoint x="460" y="1132.9999999999998" as="sourcePoint" />
          </mxGeometry>
        </mxCell>
        <mxCell id="i1MSV0jCWOu87I4LwM3I-115" value="取消抢占" style="edgeLabel;html=1;align=center;verticalAlign=middle;resizable=0;points=[];" vertex="1" connectable="0" parent="i1MSV0jCWOu87I4LwM3I-111">
          <mxGeometry x="-0.7099" y="1" relative="1" as="geometry">
            <mxPoint as="offset" />
          </mxGeometry>
        </mxCell>
        <mxCell id="i1MSV0jCWOu87I4LwM3I-101" value="分支节点4" style="rhombus;whiteSpace=wrap;html=1;" vertex="1" parent="1">
          <mxGeometry x="462" y="1039" width="120" height="56" as="geometry" />
        </mxCell>
        <mxCell id="i1MSV0jCWOu87I4LwM3I-103" value="" style="edgeStyle=orthogonalEdgeStyle;rounded=0;orthogonalLoop=1;jettySize=auto;html=1;entryX=0;entryY=0.5;entryDx=0;entryDy=0;" edge="1" parent="1" source="i1MSV0jCWOu87I4LwM3I-102" target="i1MSV0jCWOu87I4LwM3I-43">
          <mxGeometry relative="1" as="geometry" />
        </mxCell>
        <mxCell id="i1MSV0jCWOu87I4LwM3I-117" value="商务/技术" style="edgeLabel;html=1;align=center;verticalAlign=middle;resizable=0;points=[];" vertex="1" connectable="0" parent="i1MSV0jCWOu87I4LwM3I-103">
          <mxGeometry x="-0.6465" y="-1" relative="1" as="geometry">
            <mxPoint x="-81" y="45" as="offset" />
          </mxGeometry>
        </mxCell>
        <mxCell id="i1MSV0jCWOu87I4LwM3I-118" value="儿童" style="edgeLabel;html=1;align=center;verticalAlign=middle;resizable=0;points=[];" vertex="1" connectable="0" parent="i1MSV0jCWOu87I4LwM3I-103">
          <mxGeometry x="-0.5556" y="-2" relative="1" as="geometry">
            <mxPoint as="offset" />
          </mxGeometry>
        </mxCell>
        <mxCell id="i1MSV0jCWOu87I4LwM3I-102" value="分支节点5" style="rhombus;whiteSpace=wrap;html=1;" vertex="1" parent="1">
          <mxGeometry x="562" y="796" width="120" height="56" as="geometry" />
        </mxCell>
        <mxCell id="i1MSV0jCWOu87I4LwM3I-112" style="edgeStyle=orthogonalEdgeStyle;rounded=0;orthogonalLoop=1;jettySize=auto;html=1;exitX=1;exitY=0.5;exitDx=0;exitDy=0;entryX=0.5;entryY=0;entryDx=0;entryDy=0;" edge="1" parent="1" source="i1MSV0jCWOu87I4LwM3I-110" target="i1MSV0jCWOu87I4LwM3I-20">
          <mxGeometry relative="1" as="geometry" />
        </mxCell>
        <mxCell id="i1MSV0jCWOu87I4LwM3I-110" value="消息节点1" style="rounded=0;whiteSpace=wrap;html=1;" vertex="1" parent="1">
          <mxGeometry x="840" y="1131" width="120" height="62" as="geometry" />
        </mxCell>
        <mxCell id="i1MSV0jCWOu87I4LwM3I-116" value="&lt;font style=&quot;font-size: 8px;&quot;&gt;排队话术&lt;/font&gt;" style="text;html=1;align=center;verticalAlign=middle;whiteSpace=wrap;rounded=0;" vertex="1" parent="1">
          <mxGeometry x="840" y="1131" width="40" height="12" as="geometry" />
        </mxCell>
      </root>
    </mxGraphModel>
  </diagram>
</mxfile>
